{
    "asset" : {
        "generator" : "Khronos glTF Blender I/O v1.0.5",
        "version" : "2.0"
    },
    "scene" : 0,
    "scenes" : [
        {
            "name" : "Scene",
            "nodes" : [
                0
            ]
        }
    ],
    "nodes" : [
        {
            "mesh" : 0,
            "name" : "Dice Rendermesh"
        }
    ],
    "meshes" : [
        {
            "name" : "Dice Rendermesh",
            "primitives" : [
                {
                    "attributes" : {
                        "POSITION" : 0,
                        "NORMAL" : 1,
                        "TEXCOORD_0" : 2
                    },
                    "indices" : 3
                }
            ]
        }
    ],
    "accessors" : [
        {
            "bufferView" : 0,
            "componentType" : 5126,
            "count" : 896,
            "max" : [
                79.10065460205078,
                86.30133819580078,
                76.65384674072266
            ],
            "min" : [
                -79.10066986083984,
                -86.30133819580078,
                -76.65383911132812
            ],
            "type" : "VEC3"
        },
        {
            "bufferView" : 1,
            "componentType" : 5126,
            "count" : 896,
            "type" : "VEC3"
        },
        {
            "bufferView" : 2,
            "componentType" : 5126,
            "count" : 896,
            "type" : "VEC2"
        },
        {
            "bufferView" : 3,
            "componentType" : 5123,
            "count" : 1332,
            "type" : "SCALAR"
        }
    ],
    "bufferViews" : [
        {
            "buffer" : 0,
            "byteLength" : 10752,
            "byteOffset" : 0
        },
        {
            "buffer" : 0,
            "byteLength" : 10752,
            "byteOffset" : 10752
        },
        {
            "buffer" : 0,
            "byteLength" : 7168,
            "byteOffset" : 21504
        },
        {
            "buffer" : 0,
            "byteLength" : 2664,
            "byteOffset" : 28672
        }
    ],
    "buffers" : [
        {
            "byteLength" : 31336,
            "uri" : "data:application/octet-stream;base64,"
        }
    ]
}
