{
    "asset" : {
        "generator" : "Khronos glTF Blender I/O v1.0.5",
        "version" : "2.0"
    },
    "scene" : 0,
    "scenes" : [
        {
            "name" : "Scene",
            "nodes" : [
                0
            ]
        }
    ],
    "nodes" : [
        {
            "mesh" : 0,
            "name" : "Dice Rendermesh",
            "rotation" : [
                0.7071068286895752,
                0,
                0,
                0.7071067094802856
            ]
        }
    ],
    "meshes" : [
        {
            "name" : "Dice Rendermesh",
            "primitives" : [
                {
                    "attributes" : {
                        "POSITION" : 0,
                        "NORMAL" : 1,
                        "TEXCOORD_0" : 2
                    },
                    "indices" : 3
                }
            ]
        }
    ],
    "accessors" : [
        {
            "bufferView" : 0,
            "componentType" : 5126,
            "count" : 3120,
            "max" : [
                85.85404205322266,
                85.85404205322266,
                85.85404205322266
            ],
            "min" : [
                -85.85404205322266,
                -85.85404205322266,
                -85.85404205322266
            ],
            "type" : "VEC3"
        },
        {
            "bufferView" : 1,
            "componentType" : 5126,
            "count" : 3120,
            "type" : "VEC3"
        },
        {
            "bufferView" : 2,
            "componentType" : 5126,
            "count" : 3120,
            "type" : "VEC2"
        },
        {
            "bufferView" : 3,
            "componentType" : 5123,
            "count" : 4740,
            "type" : "SCALAR"
        }
    ],
    "bufferViews" : [
        {
            "buffer" : 0,
            "byteLength" : 37440,
            "byteOffset" : 0
        },
        {
            "buffer" : 0,
            "byteLength" : 37440,
            "byteOffset" : 37440
        },
        {
            "buffer" : 0,
            "byteLength" : 24960,
            "byteOffset" : 74880
        },
        {
            "buffer" : 0,
            "byteLength" : 9480,
            "byteOffset" : 99840
        }
    ],
    "buffers" : [
        {
            "byteLength" : 109320,
            "uri" : "data:application/octet-stream;base64,"
        }
    ]
}
