{
    "asset" : {
        "generator" : "Khronos glTF Blender I/O v1.0.5",
        "version" : "2.0"
    },
    "scene" : 0,
    "scenes" : [
        {
            "name" : "Scene",
            "nodes" : [
                0
            ]
        }
    ],
    "nodes" : [
        {
            "mesh" : 0,
            "name" : "Dice Rendermesh"
        }
    ],
    "meshes" : [
        {
            "name" : "Dice Rendermesh",
            "primitives" : [
                {
                    "attributes" : {
                        "POSITION" : 0,
                        "NORMAL" : 1,
                        "TEXCOORD_0" : 2
                    },
                    "indices" : 3
                }
            ]
        }
    ],
    "accessors" : [
        {
            "bufferView" : 0,
            "componentType" : 5126,
            "count" : 3072,
            "max" : [
                94.43943786621094,
                94.43944549560547,
                94.43944549560547
            ],
            "min" : [
                -94.43943786621094,
                -94.43944549560547,
                -94.43944549560547
            ],
            "type" : "VEC3"
        },
        {
            "bufferView" : 1,
            "componentType" : 5126,
            "count" : 3072,
            "type" : "VEC3"
        },
        {
            "bufferView" : 2,
            "componentType" : 5126,
            "count" : 3072,
            "type" : "VEC2"
        },
        {
            "bufferView" : 3,
            "componentType" : 5123,
            "count" : 4596,
            "type" : "SCALAR"
        }
    ],
    "bufferViews" : [
        {
            "buffer" : 0,
            "byteLength" : 36864,
            "byteOffset" : 0
        },
        {
            "buffer" : 0,
            "byteLength" : 36864,
            "byteOffset" : 36864
        },
        {
            "buffer" : 0,
            "byteLength" : 24576,
            "byteOffset" : 73728
        },
        {
            "buffer" : 0,
            "byteLength" : 9192,
            "byteOffset" : 98304
        }
    ],
    "buffers" : [
        {
            "byteLength" : 107496,
            "uri" : "data:application/octet-stream;base64,"
        }
    ]
}
